<svg xmlns="http://www.w3.org/2000/svg" viewBox="0 0 536.69 55.3"><defs><style>.cls-1{isolation:isolate;}.cls-2{fill:#ad6cff;}.cls-3{fill:#3d3d3d;mix-blend-mode:difference;}.cls-4{fill:#eee;}</style></defs><title>Charte graphique - StreamRunners</title><g class="cls-1"><g id="Calque_1" data-name="Calque 1"><rect class="cls-2" x="0.66" y="24.41" width="7.05" height="6.13" rx="3.06"/><rect class="cls-2" y="36.74" width="32" height="6.15" rx="3.07"/><rect class="cls-2" x="2.15" y="12.46" width="30.6" height="6.15" rx="3.07"/><rect class="cls-2" x="11.99" y="24.45" width="25.97" height="6.15" rx="3.07"/><path class="cls-2" d="M39.27,30.59H17.47a3.07,3.07,0,0,1,3.07,3.08h0a3.06,3.06,0,0,1-3.07,3.07h21.8a2.92,2.92,0,0,0,2.89-3.07h.18A3.08,3.08,0,0,0,39.27,30.59Z"/><path class="cls-2" d="M32.23,18.6h-9.7a2.92,2.92,0,0,1,2.92,2.92h0a2.93,2.93,0,0,1-2.92,2.93h9.7a2.93,2.93,0,0,0,2.92-2.93h0A2.92,2.92,0,0,0,32.23,18.6Z"/><path class="cls-2" d="M37.09,21.3A7.27,7.27,0,0,1,48,15L65.64,25.18l11.3,6.52a7.29,7.29,0,0,0-2.41-10.35L56.89,11.17,39.25,1a7.27,7.27,0,0,0-10.91,6.3V48a7.27,7.27,0,0,0,8.75,7.12V21.3Z"/><path class="cls-2" d="M56.89,44.14,74.53,34a7.25,7.25,0,0,0,2.41-2.25l-11.3-6.52L48,15a7.27,7.27,0,0,0-10.91,6.3V55.14a7.06,7.06,0,0,0,2.16-.82Z"/><path class="cls-3" d="M56.89,44.14,74.53,34a7.25,7.25,0,0,0,2.41-2.25l-11.3-6.52L48,15a7.27,7.27,0,0,0-10.91,6.3V55.14a7.06,7.06,0,0,0,2.16-.82Z"/><path class="cls-4" d="M102.54,54.73a26,26,0,0,1-7.42-1,15.16,15.16,0,0,1-5.36-2.64,4.6,4.6,0,0,1-2-3.5,5.86,5.86,0,0,1,.5-2.18,6.86,6.86,0,0,1,1.4-2.17,2.77,2.77,0,0,1,2.06-.93,4.22,4.22,0,0,1,2.49.89,18.52,18.52,0,0,0,3.07,1.75,11.77,11.77,0,0,0,4.93.85c2.07,0,3.39-.29,4-.89a2.58,2.58,0,0,0,.85-1.67,2.27,2.27,0,0,0-1.32-2.06,13.89,13.89,0,0,0-3.38-1.25c-1.38-.33-2.84-.72-4.39-1.16a19.56,19.56,0,0,1-4.39-1.83,9.65,9.65,0,0,1-3.39-3.18,9.53,9.53,0,0,1-1.32-5.29,12.68,12.68,0,0,1,1.36-5.63,10.66,10.66,0,0,1,4.55-4.55,17.87,17.87,0,0,1,8.7-1.79,28.58,28.58,0,0,1,6.42.7,14.94,14.94,0,0,1,4.89,2,3.6,3.6,0,0,1,1.91,2.92,6.6,6.6,0,0,1-.51,2.14,7.8,7.8,0,0,1-1.47,2.44,3.06,3.06,0,0,1-2.38,1.09,5.36,5.36,0,0,1-2.25-.58c-.83-.39-1.76-.78-2.8-1.17a10.32,10.32,0,0,0-3.65-.58,6.89,6.89,0,0,0-2.53.39,3.69,3.69,0,0,0-1.43.93,1.77,1.77,0,0,0-.47,1.17,1.84,1.84,0,0,0,1.32,1.67,20.72,20.72,0,0,0,3.42,1.09c1.4.33,2.88.72,4.43,1.16a17.48,17.48,0,0,1,4.43,1.95,10.23,10.23,0,0,1,3.42,3.41,10.47,10.47,0,0,1,1.32,5.56,10.86,10.86,0,0,1-3.84,8.71Q109.85,54.73,102.54,54.73Z"/><path class="cls-4" d="M136.82,54q-7.4,0-11.31-3.14t-3.93-10V4.52a3,3,0,0,1,2-2.64,8.81,8.81,0,0,1,8.19,0,3,3,0,0,1,1.91,2.64V17h8.78a2.38,2.38,0,0,1,2.22,1.36,6.19,6.19,0,0,1,0,5.87,2.4,2.4,0,0,1-2.22,1.32h-8.78V40.82a3.18,3.18,0,0,0,.7,2.37,3.63,3.63,0,0,0,2.49.66h3.34A4.62,4.62,0,0,1,144,45.44a5.54,5.54,0,0,1,1.25,3.46A5.46,5.46,0,0,1,144,52.4,4.66,4.66,0,0,1,140.16,54Z"/><path class="cls-4" d="M154.69,54a7.26,7.26,0,0,1-4.23-1.16,3.22,3.22,0,0,1-1.68-2.57V20.61A3,3,0,0,1,150.46,18a8.08,8.08,0,0,1,4.23-1,6.89,6.89,0,0,1,3.81,1,3,3,0,0,1,1.55,2.64v2.88a13.15,13.15,0,0,1,2.22-3.31,13.5,13.5,0,0,1,3.26-2.64,7.49,7.49,0,0,1,3.77-1.05h2.26a3.79,3.79,0,0,1,3,1.56,5.57,5.57,0,0,1,1.28,3.65,5.71,5.71,0,0,1-1.28,3.73,3.78,3.78,0,0,1-3,1.55H169.3a6.7,6.7,0,0,0-4,1.44,10.68,10.68,0,0,0-3.19,4,14.1,14.1,0,0,0-1.24,6.14V50.22A3.19,3.19,0,0,1,159,52.79,7.84,7.84,0,0,1,154.69,54Z"/><path class="cls-4" d="M195.89,54.73a24,24,0,0,1-10.19-2.06,16.61,16.61,0,0,1-6.95-5.79,15,15,0,0,1-2.53-8.63V32.58a14.19,14.19,0,0,1,2.41-8,17.82,17.82,0,0,1,6.45-5.87,19.33,19.33,0,0,1,17.29-.35,16,16,0,0,1,6.11,5.17,13.09,13.09,0,0,1,2.33,7.73q0,3.5-1.13,5a4.66,4.66,0,0,1-2.88,1.87,18.14,18.14,0,0,1-3.53.35h-15V39a5.65,5.65,0,0,0,2.17,4.63,9,9,0,0,0,5.76,1.75,10.43,10.43,0,0,0,4.12-.74q1.69-.73,3-1.44a5.4,5.4,0,0,1,2.56-.7,3.44,3.44,0,0,1,2.41.93,6.19,6.19,0,0,1,1.52,2.18,6,6,0,0,1,.5,2.18,4.46,4.46,0,0,1-1.79,3.1,14.36,14.36,0,0,1-5,2.76A23.27,23.27,0,0,1,195.89,54.73Zm-7.62-23h9.64a1.69,1.69,0,0,0,1.24-.39,2.1,2.1,0,0,0,.39-1.48,4.06,4.06,0,0,0-.82-2.6,4.84,4.84,0,0,0-2.1-1.56,7.56,7.56,0,0,0-2.76-.5,7.41,7.41,0,0,0-2.68.5,5,5,0,0,0-2.1,1.56,4.12,4.12,0,0,0-.81,2.6Z"/><path class="cls-4" d="M222.78,54.73a10.43,10.43,0,0,1-7-2.52c-2-1.69-2.95-4.29-2.95-7.82a10.23,10.23,0,0,1,2.33-7.15,12.39,12.39,0,0,1,6.41-3.57,39.7,39.7,0,0,1,9.44-1h2.8v-.78a6.93,6.93,0,0,0-.54-2.64A5.18,5.18,0,0,0,231.48,27a6,6,0,0,0-3.5-.89,13.69,13.69,0,0,0-4.74.62A10.34,10.34,0,0,0,220.83,28a3.1,3.1,0,0,1-1.94.66,3.25,3.25,0,0,1-3-1.94,8.37,8.37,0,0,1-1.05-4A3.94,3.94,0,0,1,217,19.45a16.86,16.86,0,0,1,5.2-2.18,24.15,24.15,0,0,1,5.95-.78q6.38,0,10.26,2.18a13.67,13.67,0,0,1,5.67,5.63,16,16,0,0,1,1.79,7.43V50.22a3.15,3.15,0,0,1-1.67,2.65A7.69,7.69,0,0,1,240,54a6.53,6.53,0,0,1-3.81-1.08,3.19,3.19,0,0,1-1.55-2.65V48.51a25.24,25.24,0,0,1-4.9,4.32A12,12,0,0,1,222.78,54.73ZM228,46a4.35,4.35,0,0,0,2.57-1,8.75,8.75,0,0,0,2.29-2.61,6.81,6.81,0,0,0,1-3.57v-.31h-.31a30.83,30.83,0,0,0-4.16.27,6.85,6.85,0,0,0-3.18,1.16A3.21,3.21,0,0,0,225,42.68a3.22,3.22,0,0,0,.86,2.49A3.09,3.09,0,0,0,228,46Z"/><path class="cls-4" d="M257.28,54A7.41,7.41,0,0,1,253,52.79a3.21,3.21,0,0,1-1.67-2.57V20.61A3,3,0,0,1,253,18a8.26,8.26,0,0,1,4.31-1A6.71,6.71,0,0,1,261,18a3,3,0,0,1,1.56,2.64V22.4a13.42,13.42,0,0,1,3.88-4.08,10.71,10.71,0,0,1,6.38-1.83,8.08,8.08,0,0,1,5.59,2.18A13,13,0,0,1,282,24.26a14,14,0,0,1,5.17-5.86,12.36,12.36,0,0,1,6.49-1.91,13.29,13.29,0,0,1,6.87,1.91A14.36,14.36,0,0,1,305.78,24a18,18,0,0,1,2,8.86V50.22A3.22,3.22,0,0,1,306,52.79,7.68,7.68,0,0,1,301.74,54a7.56,7.56,0,0,1-4.2-1.16,3.22,3.22,0,0,1-1.79-2.57V32.81a6.63,6.63,0,0,0-.73-3.26,5,5,0,0,0-1.95-2,5.16,5.16,0,0,0-2.52-.66,4.61,4.61,0,0,0-2.37.66,5.21,5.21,0,0,0-1.87,1.94,6.61,6.61,0,0,0-.74,3.3V50.3a2.89,2.89,0,0,1-1.9,2.8,10.05,10.05,0,0,1-4.16.85,9.9,9.9,0,0,1-4-.85,2.88,2.88,0,0,1-1.94-2.8V32.89a6.32,6.32,0,0,0-.78-3.26A5.2,5.2,0,0,0,268.24,27a4.78,4.78,0,0,0-2.37.63,4.67,4.67,0,0,0-1.83,1.9,7,7,0,0,0-.7,3.3V50.22a3.2,3.2,0,0,1-1.78,2.57A7.74,7.74,0,0,1,257.28,54Z"/><path class="cls-2" d="M317.44,54a3.39,3.39,0,0,1-2.22-.73,2.12,2.12,0,0,1-.89-1.6V19.37a1.9,1.9,0,0,1,.89-1.63,3.78,3.78,0,0,1,2.22-.63,3.55,3.55,0,0,1,2.17.63,1.91,1.91,0,0,1,.86,1.63V23A12.29,12.29,0,0,1,322.8,20a12.49,12.49,0,0,1,3.46-2.37,10.19,10.19,0,0,1,4.39-.93h2.64a2.23,2.23,0,0,1,1.75.85,3.11,3.11,0,0,1,.74,2.1,3,3,0,0,1-.74,2,2.24,2.24,0,0,1-1.75.86h-2.64a8.77,8.77,0,0,0-4.74,1.4,10.81,10.81,0,0,0-3.69,3.92,12.13,12.13,0,0,0-1.44,6.1V51.62a2.09,2.09,0,0,1-1,1.6A3.82,3.82,0,0,1,317.44,54Z"/><path class="cls-2" d="M354.74,54.58a14.8,14.8,0,0,1-7.77-2.1,16.35,16.35,0,0,1-5.6-5.52,13.82,13.82,0,0,1-2.09-7.31V19.45a2.06,2.06,0,0,1,1-1.6,3.69,3.69,0,0,1,2.29-.74,3.52,3.52,0,0,1,2.25.74,2.07,2.07,0,0,1,.94,1.6v20.2a8.66,8.66,0,0,0,1.2,4.36,10.06,10.06,0,0,0,3.23,3.42,8.35,8.35,0,0,0,9,0A9.76,9.76,0,0,0,362.36,44a8.83,8.83,0,0,0,1.17-4.36V19.37a1.91,1.91,0,0,1,1-1.6,4,4,0,0,1,2.25-.66,3.73,3.73,0,0,1,2.33.66,2,2,0,0,1,.86,1.6V39.65A13.9,13.9,0,0,1,367.92,47a16.21,16.21,0,0,1-5.56,5.48A14.53,14.53,0,0,1,354.74,54.58Z"/><path class="cls-2" d="M380.78,54a3.48,3.48,0,0,1-2.29-.73,2.1,2.1,0,0,1-.9-1.6V19.37a1.88,1.88,0,0,1,.9-1.63,3.87,3.87,0,0,1,2.29-.63,3.44,3.44,0,0,1,2.1.63,1.91,1.91,0,0,1,.85,1.63v3.18a12.35,12.35,0,0,1,3.89-4.08,11.26,11.26,0,0,1,6.53-1.82A12.11,12.11,0,0,1,401,18.71a15.27,15.27,0,0,1,5,5.4,15.08,15.08,0,0,1,1.87,7.46v20a1.9,1.9,0,0,1-1,1.75,4.45,4.45,0,0,1-2.26.58,4.23,4.23,0,0,1-2.17-.58,1.88,1.88,0,0,1-1-1.75v-20a8.67,8.67,0,0,0-1.21-4.35A10,10,0,0,0,397,23.8a8,8,0,0,0-8.48-.2,9.27,9.27,0,0,0-3.18,3.11A9,9,0,0,0,384,31.57v20a2.06,2.06,0,0,1-1,1.6A3.69,3.69,0,0,1,380.78,54Z"/><path class="cls-2" d="M418.55,54a3.48,3.48,0,0,1-2.29-.73,2.09,2.09,0,0,1-.89-1.6V19.37a1.87,1.87,0,0,1,.89-1.63,3.87,3.87,0,0,1,2.29-.63,3.44,3.44,0,0,1,2.1.63,1.91,1.91,0,0,1,.86,1.63v3.18a12.21,12.21,0,0,1,3.88-4.08,11.26,11.26,0,0,1,6.53-1.82,12.06,12.06,0,0,1,6.84,2.06,15.27,15.27,0,0,1,5,5.4,15,15,0,0,1,1.87,7.46v20a1.9,1.9,0,0,1-1,1.75,4.45,4.45,0,0,1-2.26.58,4.25,4.25,0,0,1-2.17-.58,1.88,1.88,0,0,1-1-1.75v-20a8.57,8.57,0,0,0-1.21-4.35,10,10,0,0,0-3.22-3.42,8,8,0,0,0-8.47-.2,9.21,9.21,0,0,0-3.19,3.11,9,9,0,0,0-1.24,4.86v20a2.07,2.07,0,0,1-1,1.6A3.67,3.67,0,0,1,418.55,54Z"/><path class="cls-2" d="M469.07,54.58a20.06,20.06,0,0,1-8.94-1.91A15.3,15.3,0,0,1,454,47.39a13.94,13.94,0,0,1-2.25-7.89V31.34A13.25,13.25,0,0,1,453.88,24a16.16,16.16,0,0,1,5.63-5.36,15.36,15.36,0,0,1,20.56,4.89A13.35,13.35,0,0,1,482.13,31a7.68,7.68,0,0,1-1,4.47,4.19,4.19,0,0,1-2.57,1.67,16.39,16.39,0,0,1-3.26.31h-17.1v2.33a8.37,8.37,0,0,0,3.11,6.88,12.3,12.3,0,0,0,8,2.52,11.24,11.24,0,0,0,4.59-.77,19.87,19.87,0,0,0,2.8-1.52,3.59,3.59,0,0,1,1.94-.74,2.11,2.11,0,0,1,1.44.51,3.48,3.48,0,0,1,.89,1.2,3.13,3.13,0,0,1,.31,1.25,3.42,3.42,0,0,1-1.47,2.29,12.94,12.94,0,0,1-4.24,2.25A19.48,19.48,0,0,1,469.07,54.58ZM458.19,33.05h14.38a5,5,0,0,0,2.76-.51,2.39,2.39,0,0,0,.66-2,8.59,8.59,0,0,0-1.13-4.31A8.86,8.86,0,0,0,471.71,23a8.55,8.55,0,0,0-4.58-1.24,8.92,8.92,0,0,0-4.43,1.12A9.17,9.17,0,0,0,459.43,26a7.77,7.77,0,0,0-1.24,4.28Z"/><path class="cls-2" d="M491.14,54a3.35,3.35,0,0,1-2.21-.73,2.1,2.1,0,0,1-.9-1.6V19.37a1.88,1.88,0,0,1,.9-1.63,3.72,3.72,0,0,1,2.21-.63,3.59,3.59,0,0,1,2.18.63,1.91,1.91,0,0,1,.85,1.63V23A12.1,12.1,0,0,1,496.51,20,12.44,12.44,0,0,1,500,17.58a10.22,10.22,0,0,1,4.39-.93H507a2.26,2.26,0,0,1,1.75.85,3.11,3.11,0,0,1,.73,2.1,3,3,0,0,1-.73,2,2.27,2.27,0,0,1-1.75.86h-2.65a8.82,8.82,0,0,0-4.74,1.4,10.81,10.81,0,0,0-3.69,3.92,12.13,12.13,0,0,0-1.44,6.1V51.62a2.06,2.06,0,0,1-1,1.6A3.82,3.82,0,0,1,491.14,54Z"/><path class="cls-2" d="M523.63,54.58a20.57,20.57,0,0,1-6.61-1,14.38,14.38,0,0,1-4.5-2.29,3.59,3.59,0,0,1-1.64-2.64,3.08,3.08,0,0,1,.31-1.28,4.18,4.18,0,0,1,.82-1.17,1.54,1.54,0,0,1,1.13-.5,3.27,3.27,0,0,1,2,.89,16,16,0,0,0,3,1.83,12.31,12.31,0,0,0,5.36.93q4.13,0,5.76-1.52a4.55,4.55,0,0,0,1.63-3.38,4.76,4.76,0,0,0-1.4-3.69,9.83,9.83,0,0,0-3.58-2q-2.18-.73-4.58-1.44a29.63,29.63,0,0,1-4.59-1.75,9.08,9.08,0,0,1-3.53-3,8.57,8.57,0,0,1-1.36-5.09,11.17,11.17,0,0,1,1.24-5.05,10.18,10.18,0,0,1,4-4.16,14.52,14.52,0,0,1,7.46-1.67,23.21,23.21,0,0,1,5.25.58,14.27,14.27,0,0,1,4.12,1.55c1.06.65,1.59,1.34,1.59,2.06a3.51,3.51,0,0,1-.31,1.25,4.8,4.8,0,0,1-.86,1.4,1.76,1.76,0,0,1-1.39.62,4.32,4.32,0,0,1-1.75-.58,19.65,19.65,0,0,0-2.72-1.13,12.1,12.1,0,0,0-3.85-.55,8.2,8.2,0,0,0-4.12.9,5.75,5.75,0,0,0-2.25,2.1,4.79,4.79,0,0,0-.7,2.45,3.67,3.67,0,0,0,1.36,3,10.53,10.53,0,0,0,3.57,1.75c1.48.44,3,.88,4.63,1.32a21,21,0,0,1,4.58,1.86,10.38,10.38,0,0,1,3.58,3.3,10,10,0,0,1,1.4,5.6,9.35,9.35,0,0,1-3.42,7.58Q529.85,54.58,523.63,54.58Z"/></g></g></svg>